<svg width="33" height="33" viewBox="0 0 33 33" fill="none" xmlns="http://www.w3.org/2000/svg">
<path d="M12.2896 15.3032C12.4888 15.3032 12.6603 15.2313 12.8042 15.0874C12.9481 14.9435 13.02 14.772 13.02 14.5728C13.02 14.368 12.9481 14.1965 12.8042 14.0581C12.6603 13.9142 12.4888 13.8423 12.2896 13.8423C12.0903 13.8423 11.9188 13.9142 11.7749 14.0581C11.631 14.202 11.5591 14.3735 11.5591 14.5728C11.5591 14.7664 11.631 14.938 11.7749 15.0874C11.9188 15.2313 12.0903 15.3032 12.2896 15.3032ZM12.2896 18.333C12.4888 18.333 12.6603 18.2611 12.8042 18.1172C12.9481 17.9733 13.02 17.8018 13.02 17.6025C13.02 17.3978 12.9481 17.2262 12.8042 17.0879C12.6603 16.9495 12.4888 16.8804 12.2896 16.8804C12.0848 16.8804 11.9105 16.9523 11.7666 17.0962C11.6283 17.2345 11.5591 17.4033 11.5591 17.6025C11.5591 17.8018 11.6283 17.9733 11.7666 18.1172C11.9105 18.2611 12.0848 18.333 12.2896 18.333ZM12.2896 21.5371C12.4888 21.5371 12.6603 21.4652 12.8042 21.3213C12.9481 21.1774 13.02 21.0059 13.02 20.8066C13.02 20.6074 12.9481 20.4359 12.8042 20.292C12.6603 20.1481 12.4888 20.0762 12.2896 20.0762C12.0903 20.0762 11.9188 20.1481 11.7749 20.292C11.631 20.4359 11.5591 20.6074 11.5591 20.8066C11.5591 21.0059 11.631 21.1774 11.7749 21.3213C11.9188 21.4652 12.0903 21.5371 12.2896 21.5371ZM14.5806 15.104H19.7104C19.8543 15.104 19.9788 15.0514 20.084 14.9463C20.1891 14.8411 20.2417 14.7166 20.2417 14.5728C20.2417 14.4233 20.1891 14.2961 20.084 14.1909C19.9788 14.0802 19.8543 14.0249 19.7104 14.0249H14.5806C14.4312 14.0249 14.3011 14.0802 14.1904 14.1909C14.0853 14.2961 14.0327 14.4233 14.0327 14.5728C14.0327 14.7166 14.0853 14.8411 14.1904 14.9463C14.3011 15.0514 14.4312 15.104 14.5806 15.104ZM14.5806 18.1421H19.7104C19.8599 18.1421 19.9844 18.0895 20.084 17.9844C20.1891 17.8792 20.2417 17.752 20.2417 17.6025C20.2417 17.4531 20.1891 17.3286 20.084 17.229C19.9844 17.1239 19.8599 17.0713 19.7104 17.0713H14.5806C14.4256 17.0713 14.2956 17.1239 14.1904 17.229C14.0853 17.3286 14.0327 17.4531 14.0327 17.6025C14.0327 17.752 14.0853 17.8792 14.1904 17.9844C14.2956 18.0895 14.4256 18.1421 14.5806 18.1421ZM14.5806 21.3462H19.7104C19.8543 21.3462 19.9788 21.2936 20.084 21.1885C20.1891 21.0778 20.2417 20.9505 20.2417 20.8066C20.2417 20.6572 20.1891 20.5327 20.084 20.4331C19.9844 20.328 19.8599 20.2754 19.7104 20.2754H14.5806C14.4256 20.2754 14.2956 20.328 14.1904 20.4331C14.0853 20.5327 14.0327 20.6572 14.0327 20.8066C14.0327 20.9505 14.0853 21.0778 14.1904 21.1885C14.3011 21.2936 14.4312 21.3462 14.5806 21.3462ZM11.4927 26.0859C10.6349 26.0859 9.99023 25.8674 9.55859 25.4302C9.13249 24.9985 8.91943 24.3483 8.91943 23.4795V10.8872C8.91943 10.0184 9.12972 9.36816 9.55029 8.93652C9.97087 8.49935 10.5907 8.28076 11.4097 8.28076H11.6006C11.6006 8.29736 11.6006 8.31673 11.6006 8.33887C11.6006 8.35547 11.6006 8.37207 11.6006 8.38867V9.36816C11.6006 9.88835 11.7611 10.3172 12.082 10.6548C12.403 10.9868 12.8208 11.1528 13.3354 11.1528H18.4653C18.98 11.1528 19.3978 10.9868 19.7188 10.6548C20.0397 10.3172 20.2002 9.88835 20.2002 9.36816V8.38867C20.2002 8.37207 20.2002 8.35547 20.2002 8.33887C20.2002 8.31673 20.2002 8.29736 20.2002 8.28076H20.3911C21.2101 8.28076 21.8299 8.49935 22.2505 8.93652C22.6711 9.36816 22.8813 10.0184 22.8813 10.8872V23.4795C22.8813 24.3483 22.6655 24.9985 22.2339 25.4302C21.8078 25.8674 21.1659 26.0859 20.3081 26.0859H11.4927ZM13.3354 10.1899C13.092 10.1899 12.901 10.118 12.7627 9.97412C12.6299 9.83024 12.5635 9.62826 12.5635 9.36816V8.49658C12.5635 8.23649 12.6299 8.03451 12.7627 7.89062C12.901 7.74674 13.092 7.6748 13.3354 7.6748H14.0991C14.1268 7.20443 14.3122 6.80322 14.6553 6.47119C15.0039 6.13916 15.4189 5.97314 15.9004 5.97314C16.3818 5.97314 16.7941 6.13916 17.1372 6.47119C17.4858 6.80322 17.674 7.20443 17.7017 7.6748H18.4653C18.7088 7.6748 18.897 7.74674 19.0298 7.89062C19.1681 8.03451 19.2373 8.23649 19.2373 8.49658V9.36816C19.2373 9.62826 19.1681 9.83024 19.0298 9.97412C18.897 10.118 18.7088 10.1899 18.4653 10.1899H13.3354ZM15.9004 8.46338C16.0996 8.46338 16.2684 8.39144 16.4067 8.24756C16.5506 8.10368 16.6226 7.9349 16.6226 7.74121C16.6226 7.53646 16.5506 7.36491 16.4067 7.22656C16.2684 7.08268 16.0996 7.01074 15.9004 7.01074C15.7012 7.01074 15.5296 7.08268 15.3857 7.22656C15.2474 7.36491 15.1782 7.53646 15.1782 7.74121C15.1782 7.9349 15.2474 8.10368 15.3857 8.24756C15.5296 8.39144 15.7012 8.46338 15.9004 8.46338Z" fill="#2857C9"/>
</svg>
