<svg width="33" height="33" viewBox="0 0 33 33" fill="none" xmlns="http://www.w3.org/2000/svg">
<path d="M11.3232 24.1602C10.4544 24.1602 9.80143 23.9443 9.36426 23.5127C8.93262 23.0866 8.7168 22.4447 8.7168 21.5869V11.4517C8.7168 10.5939 8.93262 9.95199 9.36426 9.52588C9.80143 9.09424 10.4544 8.87842 11.3232 8.87842H21.3921C22.2609 8.87842 22.9111 9.09424 23.3428 9.52588C23.7799 9.95199 23.9985 10.5939 23.9985 11.4517V21.5869C23.9985 22.4447 23.7799 23.0866 23.3428 23.5127C22.9111 23.9443 22.2609 24.1602 21.3921 24.1602H11.3232ZM11.3398 22.8237H21.3755C21.785 22.8237 22.1004 22.7158 22.3218 22.5C22.5487 22.2786 22.6621 21.9521 22.6621 21.5205V11.5181C22.6621 11.0864 22.5487 10.7627 22.3218 10.5469C22.1004 10.3255 21.785 10.2148 21.3755 10.2148H11.3398C10.9248 10.2148 10.6066 10.3255 10.3853 10.5469C10.1639 10.7627 10.0532 11.0864 10.0532 11.5181V21.5205C10.0532 21.9521 10.1639 22.2786 10.3853 22.5C10.6066 22.7158 10.9248 22.8237 11.3398 22.8237ZM15.457 20.4414C15.3187 20.4414 15.1914 20.411 15.0752 20.3501C14.9645 20.2892 14.8566 20.1924 14.7515 20.0596L12.7261 17.5693C12.5988 17.3978 12.5352 17.2262 12.5352 17.0547C12.5352 16.8721 12.596 16.7171 12.7178 16.5898C12.8451 16.457 12.9972 16.3906 13.1743 16.3906C13.2905 16.3906 13.3957 16.4155 13.4897 16.4653C13.5894 16.5096 13.689 16.5981 13.7886 16.731L15.4238 18.8477L18.8687 13.3193C19.0236 13.0703 19.2173 12.9458 19.4497 12.9458C19.6213 12.9458 19.7762 13.0011 19.9146 13.1118C20.0529 13.2225 20.1221 13.3691 20.1221 13.5518C20.1221 13.6458 20.0999 13.7399 20.0557 13.834C20.0169 13.9225 19.9727 14.0055 19.9229 14.083L16.1294 20.0596C15.9634 20.3141 15.7393 20.4414 15.457 20.4414Z" fill="#2857C9"/>
</svg>
