<svg width="32" height="33" viewBox="0 0 32 33" fill="none" xmlns="http://www.w3.org/2000/svg">
<path d="M7.5498 16.7974C7.5498 15.4305 7.74902 14.1909 8.14746 13.0786C8.55143 11.9608 9.12419 11.0034 9.86572 10.2065C10.6073 9.40413 11.4954 8.78711 12.5303 8.35547C13.5706 7.92383 14.7272 7.70801 16 7.70801C17.2673 7.70801 18.4183 7.92383 19.4531 8.35547C20.4935 8.78711 21.3844 9.40413 22.126 10.2065C22.873 11.0034 23.4458 11.9608 23.8442 13.0786C24.2482 14.1909 24.4502 15.4305 24.4502 16.7974C24.4502 17.633 24.3727 18.4852 24.2178 19.354C24.0628 20.2173 23.8387 21.0612 23.5454 21.8857C23.2521 22.7103 22.9035 23.4795 22.4995 24.1934C22.3999 24.3704 22.2588 24.4811 22.0762 24.5254C21.8991 24.5752 21.7165 24.5475 21.5283 24.4424C21.3512 24.3483 21.2406 24.21 21.1963 24.0273C21.1576 23.8503 21.1908 23.6649 21.2959 23.4712C21.8493 22.4585 22.2782 21.3739 22.5825 20.2173C22.8869 19.0552 23.0391 17.9152 23.0391 16.7974C23.0391 15.6463 22.8703 14.6004 22.5327 13.6597C22.2007 12.7189 21.722 11.911 21.0967 11.2358C20.4769 10.5552 19.7354 10.0322 18.8721 9.66699C18.0088 9.30176 17.0514 9.11914 16 9.11914C14.943 9.11914 13.9829 9.30176 13.1196 9.66699C12.2563 10.0322 11.5148 10.5552 10.895 11.2358C10.2752 11.911 9.79655 12.7189 9.45898 13.6597C9.12695 14.6004 8.96094 15.6463 8.96094 16.7974C8.96094 17.9152 9.11035 19.0552 9.40918 20.2173C9.71354 21.3739 10.1424 22.4585 10.6958 23.4712C10.8009 23.6649 10.8314 23.8503 10.7871 24.0273C10.7484 24.21 10.6405 24.3483 10.4634 24.4424C10.2752 24.5475 10.0898 24.5752 9.90723 24.5254C9.73014 24.4811 9.5918 24.3704 9.49219 24.1934C9.08822 23.4795 8.73958 22.7103 8.44629 21.8857C8.15853 21.0612 7.93717 20.2173 7.78223 19.354C7.62728 18.4852 7.5498 17.633 7.5498 16.7974ZM10.1479 23.9858L8.96094 19.9434C8.81706 19.4619 8.84749 19.033 9.05225 18.6567C9.257 18.2749 9.6001 18.0148 10.0815 17.8765C10.563 17.7437 10.9891 17.7796 11.3599 17.9844C11.7362 18.1836 11.9935 18.5212 12.1318 18.9971L13.3188 23.0479C13.4627 23.5238 13.4323 23.9499 13.2275 24.3262C13.0228 24.708 12.6797 24.9681 12.1982 25.1064C11.7168 25.2448 11.2879 25.2116 10.9116 25.0068C10.5409 24.8021 10.2863 24.4618 10.1479 23.9858ZM21.8438 23.9858C21.7054 24.4618 21.4481 24.8021 21.0718 25.0068C20.701 25.2116 20.2749 25.2448 19.7935 25.1064C19.3175 24.9681 18.9744 24.7108 18.7642 24.3345C18.5594 23.9582 18.529 23.5293 18.6729 23.0479L19.8599 18.9971C19.9982 18.5212 20.2528 18.1836 20.6235 17.9844C20.9998 17.7796 21.4287 17.7437 21.9102 17.8765C22.3916 18.0148 22.7347 18.2721 22.9395 18.6484C23.1442 19.0247 23.1746 19.4564 23.0308 19.9434L21.8438 23.9858Z" fill="#2857C9"/>
</svg>
