<svg width="33" height="33" viewBox="0 0 33 33" fill="none" xmlns="http://www.w3.org/2000/svg">
<path d="M16.0361 25.1812C15.8203 25.1812 15.6377 25.1203 15.4883 24.9985C15.3389 24.8823 15.2393 24.7163 15.1895 24.5005L14.7578 22.6743C14.5973 22.619 14.4396 22.5609 14.2847 22.5C14.1297 22.4391 13.9831 22.3755 13.8447 22.3091L12.251 23.2886C12.0684 23.3993 11.8802 23.4463 11.6865 23.4297C11.4984 23.4131 11.3296 23.3301 11.1802 23.1807L10.1177 22.1182C9.96826 21.9688 9.88249 21.7944 9.86035 21.5952C9.84375 21.396 9.89632 21.2078 10.0181 21.0308L10.9893 19.4453C10.9229 19.3014 10.8592 19.1548 10.7983 19.0054C10.7375 18.856 10.6849 18.7065 10.6406 18.5571L8.79785 18.1172C8.58203 18.0729 8.41602 17.9761 8.2998 17.8267C8.18359 17.6772 8.12549 17.4946 8.12549 17.2788V15.7764C8.12549 15.5661 8.18359 15.3862 8.2998 15.2368C8.41602 15.0874 8.58203 14.9906 8.79785 14.9463L10.624 14.5063C10.6738 14.3348 10.7292 14.1743 10.79 14.0249C10.8564 13.8755 10.9173 13.7344 10.9727 13.6016L10.0015 11.9912C9.87972 11.8141 9.82715 11.6315 9.84375 11.4434C9.86035 11.2497 9.94613 11.0781 10.1011 10.9287L11.1802 9.85791C11.3351 9.71403 11.5011 9.63102 11.6782 9.60889C11.8608 9.58675 12.0435 9.62826 12.2261 9.7334L13.8364 10.7295C13.9748 10.6576 14.1214 10.5911 14.2764 10.5303C14.4368 10.4639 14.5973 10.403 14.7578 10.3477L15.1895 8.51318C15.2393 8.3029 15.3389 8.13688 15.4883 8.01514C15.6377 7.89339 15.8203 7.83252 16.0361 7.83252H17.5635C17.7793 7.83252 17.9619 7.89339 18.1113 8.01514C18.2607 8.13688 18.3576 8.3029 18.4019 8.51318L18.8335 10.3643C19.005 10.4196 19.1655 10.4777 19.3149 10.5386C19.4699 10.5994 19.6138 10.6659 19.7466 10.7378L21.3735 9.7334C21.5562 9.62826 21.736 9.58952 21.9131 9.61719C22.0902 9.63932 22.2562 9.71956 22.4111 9.85791L23.4985 10.9287C23.6535 11.0781 23.7365 11.2497 23.7476 11.4434C23.7642 11.6315 23.7144 11.8141 23.5981 11.9912L22.6187 13.6016C22.674 13.7344 22.7321 13.8755 22.793 14.0249C22.8594 14.1743 22.9202 14.3348 22.9756 14.5063L24.8018 14.9463C25.012 14.9906 25.1753 15.0874 25.2915 15.2368C25.4132 15.3862 25.4741 15.5661 25.4741 15.7764V17.2788C25.4741 17.4946 25.4132 17.6772 25.2915 17.8267C25.1753 17.9761 25.012 18.0729 24.8018 18.1172L22.959 18.5571C22.9092 18.7065 22.8538 18.856 22.793 19.0054C22.7376 19.1548 22.674 19.3014 22.6021 19.4453L23.5815 21.0308C23.7033 21.2078 23.7531 21.396 23.731 21.5952C23.7144 21.7944 23.6313 21.9688 23.4819 22.1182L22.4111 23.1807C22.2617 23.3301 22.0902 23.4131 21.8965 23.4297C21.7083 23.4463 21.5257 23.3993 21.3486 23.2886L19.7466 22.3091C19.6082 22.3755 19.4616 22.4391 19.3066 22.5C19.1517 22.5609 18.994 22.619 18.8335 22.6743L18.4019 24.5005C18.3576 24.7163 18.2607 24.8823 18.1113 24.9985C17.9619 25.1203 17.7793 25.1812 17.5635 25.1812H16.0361ZM16.7998 19.437C17.3366 19.437 17.8263 19.3042 18.269 19.0386C18.7173 18.7729 19.0715 18.4188 19.3315 17.9761C19.5972 17.5278 19.73 17.0353 19.73 16.4985C19.73 15.9618 19.5972 15.4748 19.3315 15.0376C19.0715 14.5949 18.7173 14.2407 18.269 13.9751C17.8263 13.7095 17.3366 13.5767 16.7998 13.5767C16.263 13.5767 15.7733 13.7095 15.3306 13.9751C14.8879 14.2407 14.5337 14.5949 14.2681 15.0376C14.0024 15.4748 13.8696 15.9618 13.8696 16.4985C13.8696 17.0353 13.9997 17.5278 14.2598 17.9761C14.5254 18.4188 14.8796 18.7729 15.3223 19.0386C15.7705 19.3042 16.263 19.437 16.7998 19.437Z" fill="#2857C9"/>
</svg>
