<svg width="33" height="33" viewBox="0 0 33 33" fill="none" xmlns="http://www.w3.org/2000/svg">
<path d="M15.6335 25.2061C15.058 25.2061 14.6485 25.0981 14.405 24.8823C14.1615 24.6665 14.0398 24.2708 14.0398 23.6953V18.1006L15.1355 18.6899L10.2629 21.5039C10.0859 21.598 9.91707 21.6755 9.75659 21.7363C9.60164 21.7972 9.45776 21.8276 9.32495 21.8276C9.087 21.8276 8.87671 21.7502 8.69409 21.5952C8.51701 21.4403 8.34269 21.2106 8.17114 20.9062L8.12134 20.8315C8.01619 20.6379 7.93042 20.458 7.86401 20.292C7.80314 20.126 7.77271 19.971 7.77271 19.8271C7.77271 19.6003 7.84741 19.3983 7.99683 19.2212C8.15177 19.0441 8.37313 18.8753 8.66089 18.7148L13.6248 15.8511V17.0381L8.66919 14.3154C8.3759 14.1549 8.16007 13.9862 8.02173 13.8091C7.88338 13.632 7.81421 13.4328 7.81421 13.2114C7.81421 13.0675 7.84188 12.9154 7.89722 12.7549C7.95256 12.5889 8.0245 12.409 8.11304 12.2153L8.16284 12.124C8.30672 11.8031 8.47274 11.5651 8.66089 11.4102C8.84904 11.2497 9.05656 11.1694 9.28345 11.1694C9.42733 11.1694 9.58228 11.1999 9.74829 11.2607C9.91431 11.3216 10.0886 11.4046 10.2712 11.5098L15.1355 14.3237L14.0398 14.9131V9.32666C14.0398 8.75114 14.1615 8.35547 14.405 8.13965C14.6485 7.92383 15.058 7.81592 15.6335 7.81592H15.7415C16.317 7.81592 16.7265 7.92383 16.97 8.13965C17.2135 8.35547 17.3352 8.75114 17.3352 9.32666V14.9131L16.2644 14.3237L21.1121 11.5098C21.2947 11.4157 21.4635 11.341 21.6184 11.2856C21.7734 11.2248 21.9172 11.1943 22.05 11.1943C22.2769 11.1943 22.4817 11.2718 22.6643 11.4268C22.8469 11.5762 23.0295 11.8031 23.2122 12.1074L23.2703 12.2153C23.3754 12.4035 23.4556 12.5778 23.511 12.7383C23.5719 12.8988 23.6023 13.0509 23.6023 13.1948C23.6023 13.4272 23.5276 13.632 23.3782 13.8091C23.2288 13.9862 23.0102 14.1522 22.7224 14.3071L17.7751 17.0381V15.8511L22.7307 18.7148C23.0185 18.8753 23.2398 19.0469 23.3948 19.2295C23.5497 19.4066 23.6272 19.6113 23.6272 19.8438C23.6272 20.1315 23.5027 20.4635 23.2537 20.8398L23.1956 20.9312C23.0074 21.2189 22.8248 21.4403 22.6477 21.5952C22.4762 21.7446 22.2742 21.8193 22.0417 21.8193C21.9089 21.8193 21.7678 21.7917 21.6184 21.7363C21.469 21.6755 21.303 21.598 21.1204 21.5039L16.2561 18.6899L17.3352 18.1006V23.6953C17.3352 24.2708 17.2135 24.6665 16.97 24.8823C16.7265 25.0981 16.317 25.2061 15.7415 25.2061H15.6335Z" fill="#2857C9"/>
</svg>
